<svg width="512" height="512" viewBox="0 0 512 512" fill="none" xmlns="http://www.w3.org/2000/svg">
  <!-- Background -->
  <rect width="512" height="512" rx="128" fill="url(#gradient)"/>
  
  <!-- Icon -->
  <path d="M256 128C185.308 128 128 185.308 128 256C128 326.692 185.308 384 256 384C326.692 384 384 326.692 384 256C384 185.308 326.692 128 256 128ZM256 336C211.817 336 176 300.183 176 256C176 211.817 211.817 176 256 176C300.183 176 336 211.817 336 256C336 300.183 300.183 336 256 336Z" fill="white"/>
  <circle cx="256" cy="256" r="48" fill="white"/>
  
  <!-- Gradient -->
  <defs>
    <linearGradient id="gradient" x1="0" y1="0" x2="512" y2="512" gradientUnits="userSpaceOnUse">
      <stop stop-color="#2563eb"/>
      <stop offset="1" stop-color="#1d4ed8"/>
    </linearGradient>
  </defs>
</svg>
